<svg xmlns="http://www.w3.org/2000/svg" xmlns:xlink="http://www.w3.org/1999/xlink" width="1080" zoomAndPan="magnify" viewBox="0 0 810 82.499998" height="110" preserveAspectRatio="xMidYMid meet" version="1.0"><defs><clipPath id="id1"><path d="M 2.441406 2 L 807.558594 2 L 807.558594 82.003906 L 2.441406 82.003906 Z M 2.441406 2 " clip-rule="nonzero"/></clipPath></defs><g clip-path="url(#id1)"><path fill="#8200f6" d="M 771.667969 2.121094 C 766.742188 2.121094 761.792969 2.429688 756.957031 3.042969 L 756.386719 3.105469 C 755.117188 3.261719 754.21875 4.445312 754.371094 5.714844 C 754.523438 6.984375 755.707031 7.882812 756.976562 7.730469 L 757.523438 7.664062 C 763.328125 6.941406 769.238281 6.65625 775.152344 6.832031 C 776.441406 6.921875 777.515625 5.867188 777.535156 4.574219 C 777.582031 3.28125 776.574219 2.230469 775.28125 2.1875 C 774.097656 2.144531 772.875 2.121094 771.667969 2.121094 Z M 793.675781 4.226562 C 792.578125 4.226562 791.617188 4.992188 791.398438 6.109375 C 791.15625 7.378906 791.964844 8.585938 793.234375 8.828125 C 799.300781 10.011719 805.167969 11.675781 810.6875 13.824219 C 811.890625 14.285156 813.226562 13.691406 813.6875 12.488281 C 814.144531 11.28125 813.554688 9.945312 812.351562 9.484375 C 806.59375 7.25 800.441406 5.496094 794.113281 4.269531 C 793.980469 4.226562 793.828125 4.226562 793.675781 4.226562 Z M 738.453125 6.613281 C 738.257812 6.613281 738.082031 6.636719 737.882812 6.679688 C 732.082031 8.148438 726.039062 10.03125 719.929688 12.246094 C 718.726562 12.683594 718.089844 14.019531 718.527344 15.226562 C 718.96875 16.429688 720.300781 17.046875 721.507812 16.628906 C 727.484375 14.460938 733.375 12.640625 739.023438 11.195312 C 740.269531 10.886719 741.015625 9.617188 740.707031 8.367188 C 740.445312 7.316406 739.503906 6.613281 738.453125 6.613281 Z M 828.070312 17.722656 C 827.304688 17.722656 826.5625 18.097656 826.121094 18.777344 C 825.421875 19.851562 825.730469 21.296875 826.800781 21.996094 C 828.335938 23.007812 829.84375 24.058594 831.269531 25.132812 C 832.296875 25.898438 833.742188 25.703125 834.53125 24.671875 C 835.296875 23.640625 835.101562 22.195312 834.070312 21.40625 C 832.558594 20.265625 830.960938 19.148438 829.339844 18.097656 C 828.949219 17.855469 828.507812 17.722656 828.070312 17.722656 Z M 703.488281 19.082031 C 703.179688 19.082031 702.851562 19.148438 702.546875 19.28125 C 697.246094 21.648438 691.730469 24.277344 685.664062 27.34375 C 684.527344 27.914062 684.066406 29.316406 684.636719 30.457031 C 685.203125 31.597656 686.605469 32.058594 687.765625 31.488281 C 693.765625 28.460938 699.21875 25.855469 704.429688 23.53125 C 705.609375 23.007812 706.136719 21.625 705.609375 20.464844 C 705.238281 19.609375 704.382812 19.082031 703.488281 19.082031 Z M 202.78125 22.28125 C 196.5625 22.304688 190.300781 22.414062 184.148438 22.589844 C 182.859375 22.632812 181.851562 23.683594 181.894531 24.976562 C 181.9375 26.25 182.96875 27.234375 184.214844 27.234375 C 184.238281 27.234375 184.257812 27.234375 184.28125 27.234375 C 190.410156 27.058594 196.628906 26.972656 202.804688 26.929688 C 204.097656 26.929688 205.125 25.875 205.125 24.582031 C 205.105469 23.3125 204.050781 22.28125 202.78125 22.28125 Z M 221.371094 22.414062 C 220.101562 22.414062 219.074219 23.421875 219.050781 24.695312 C 219.027344 25.988281 220.058594 27.039062 221.328125 27.058594 C 227.480469 27.167969 233.699219 27.34375 239.851562 27.609375 C 241.164062 27.695312 242.214844 26.664062 242.261719 25.371094 C 242.304688 24.078125 241.320312 23.007812 240.027344 22.960938 C 233.851562 22.699219 227.589844 22.523438 221.394531 22.414062 C 221.394531 22.414062 221.371094 22.414062 221.371094 22.414062 Z M 165.648438 23.335938 C 165.605469 23.335938 165.5625 23.335938 165.515625 23.335938 C 159.34375 23.640625 153.082031 24.035156 146.925781 24.496094 C 145.65625 24.582031 144.695312 25.703125 144.78125 26.996094 C 144.871094 28.265625 145.984375 29.230469 147.277344 29.140625 C 153.410156 28.683594 159.625 28.289062 165.78125 27.980469 C 167.050781 27.914062 168.054688 26.820312 167.992188 25.546875 C 167.902344 24.300781 166.875 23.335938 165.648438 23.335938 Z M 258.484375 23.925781 C 257.28125 23.925781 256.25 24.867188 256.164062 26.097656 C 256.078125 27.367188 257.0625 28.484375 258.332031 28.574219 C 264.441406 28.96875 270.660156 29.425781 276.8125 29.976562 C 278.101562 30.0625 279.21875 29.140625 279.328125 27.871094 C 279.4375 26.601562 278.496094 25.460938 277.207031 25.351562 C 271.03125 24.804688 264.769531 24.34375 258.617188 23.949219 C 258.59375 23.925781 258.550781 23.925781 258.484375 23.925781 Z M 128.578125 26.074219 C 128.511719 26.074219 128.425781 26.074219 128.339844 26.074219 C 121.746094 26.730469 115.683594 27.410156 109.792969 28.199219 C 108.523438 28.375 107.625 29.535156 107.800781 30.808594 C 107.976562 32.078125 109.136719 32.976562 110.40625 32.800781 C 116.253906 32.035156 122.25 31.355469 128.796875 30.699219 C 130.066406 30.566406 131.007812 29.425781 130.878906 28.15625 C 130.769531 26.972656 129.761719 26.074219 128.578125 26.074219 Z M 295.511719 27.148438 C 294.347656 27.148438 293.34375 28.023438 293.210938 29.207031 C 293.078125 30.480469 294 31.640625 295.269531 31.773438 C 301.355469 32.453125 307.550781 33.195312 313.660156 34.007812 C 314.929688 34.160156 316.089844 33.285156 316.265625 32.011719 C 316.441406 30.742188 315.542969 29.582031 314.273438 29.40625 C 308.121094 28.59375 301.902344 27.828125 295.773438 27.148438 C 295.683594 27.148438 295.597656 27.148438 295.511719 27.148438 Z M 91.75 30.984375 C 91.621094 30.984375 91.488281 30.984375 91.335938 31.027344 C 84.984375 32.144531 78.832031 33.394531 73.007812 34.753906 C 71.761719 35.039062 70.972656 36.285156 71.277344 37.535156 C 71.5625 38.785156 72.8125 39.550781 74.058594 39.265625 C 79.796875 37.929688 85.882812 36.679688 92.144531 35.585938 C 93.414062 35.367188 94.246094 34.160156 94.027344 32.890625 C 93.832031 31.792969 92.847656 30.984375 91.75 30.984375 Z M 332.335938 32.058594 C 331.222656 32.058594 330.234375 32.867188 330.039062 34.027344 C 329.839844 35.300781 330.71875 36.484375 331.964844 36.679688 C 338.074219 37.644531 344.207031 38.675781 350.25 39.75 C 351.519531 39.96875 352.722656 39.136719 352.941406 37.863281 C 353.160156 36.59375 352.328125 35.386719 351.058594 35.167969 C 344.992188 34.074219 338.820312 33.042969 332.6875 32.078125 C 332.578125 32.058594 332.46875 32.058594 332.335938 32.058594 Z M 670.25 35.714844 C 669.878906 35.714844 669.503906 35.804688 669.15625 36 C 665.433594 37.996094 661.730469 40.011719 658.03125 42.027344 L 652.800781 44.878906 C 651.683594 45.492188 651.246094 46.894531 651.859375 48.03125 C 652.46875 49.171875 653.871094 49.589844 655.011719 48.976562 L 660.242188 46.125 C 663.921875 44.109375 667.621094 42.09375 671.34375 40.101562 C 672.484375 39.484375 672.898438 38.082031 672.285156 36.945312 C 671.890625 36.15625 671.082031 35.714844 670.25 35.714844 Z M 368.925781 38.652344 C 367.851562 38.652344 366.867188 39.421875 366.648438 40.515625 C 366.386719 41.765625 367.195312 42.992188 368.464844 43.253906 C 374.464844 44.484375 380.574219 45.796875 386.574219 47.15625 C 387.820312 47.441406 389.070312 46.652344 389.355469 45.402344 C 389.636719 44.152344 388.851562 42.90625 387.601562 42.621094 C 381.558594 41.238281 375.429688 39.925781 369.386719 38.695312 C 369.230469 38.652344 369.078125 38.652344 368.925781 38.652344 Z M 55.601562 39.507812 C 55.382812 39.507812 55.140625 39.53125 54.921875 39.617188 C 48.792969 41.480469 42.835938 43.5625 37.210938 45.796875 C 36.027344 46.28125 35.4375 47.617188 35.894531 48.820312 C 36.378906 50.027344 37.714844 50.597656 38.917969 50.136719 C 44.433594 47.945312 50.28125 45.90625 56.28125 44.089844 C 57.507812 43.714844 58.207031 42.421875 57.8125 41.195312 C 57.507812 40.144531 56.585938 39.507812 55.601562 39.507812 Z M 405.160156 46.894531 C 404.132812 46.894531 403.167969 47.59375 402.90625 48.644531 C 402.601562 49.894531 403.34375 51.144531 404.59375 51.472656 C 410.546875 52.984375 416.589844 54.5625 422.503906 56.207031 C 423.75 56.558594 425.019531 55.835938 425.371094 54.585938 C 425.722656 53.359375 425 52.066406 423.75 51.714844 C 417.796875 50.070312 411.730469 48.449219 405.730469 46.9375 C 405.535156 46.9375 405.335938 46.894531 405.160156 46.894531 Z M 21.117188 53.25 C 20.765625 53.25 20.394531 53.335938 20.066406 53.511719 C 14.394531 56.40625 8.921875 59.558594 3.753906 62.914062 C 2.679688 63.613281 2.375 65.0625 3.074219 66.132812 C 3.773438 67.207031 5.21875 67.515625 6.292969 66.8125 C 11.308594 63.546875 16.648438 60.480469 22.167969 57.652344 C 23.304688 57.0625 23.765625 55.679688 23.175781 54.519531 C 22.78125 53.707031 21.96875 53.25 21.117188 53.25 Z M 637.492188 53.292969 C 637.144531 53.292969 636.773438 53.378906 636.441406 53.554688 C 630.445312 56.644531 625.015625 59.296875 619.847656 61.6875 C 618.6875 62.234375 618.160156 63.613281 618.707031 64.777344 C 619.234375 65.9375 620.613281 66.464844 621.796875 65.914062 C 627.027344 63.503906 632.523438 60.808594 638.589844 57.695312 C 639.726562 57.105469 640.1875 55.703125 639.597656 54.5625 C 639.15625 53.753906 638.347656 53.292969 637.492188 53.292969 Z M 440.960938 56.820312 C 439.953125 56.820312 439.035156 57.476562 438.726562 58.484375 C 438.355469 59.714844 439.054688 61.007812 440.28125 61.378906 L 441.222656 61.664062 C 446.324219 63.21875 451.449219 64.820312 456.59375 66.417969 L 458.015625 66.859375 C 459.242188 67.253906 460.535156 66.550781 460.929688 65.324219 C 461.324219 64.097656 460.621094 62.804688 459.398438 62.410156 L 457.972656 61.972656 C 452.828125 60.347656 447.683594 58.75 442.558594 57.195312 L 441.617188 56.910156 C 441.421875 56.863281 441.179688 56.820312 440.960938 56.820312 Z M 476.476562 67.800781 C 475.46875 67.800781 474.546875 68.457031 474.242188 69.464844 C 473.871094 70.691406 474.570312 71.984375 475.796875 72.359375 C 482.476562 74.351562 488.34375 75.996094 493.773438 77.375 C 495.019531 77.707031 496.289062 76.9375 496.597656 75.710938 C 496.925781 74.460938 496.160156 73.191406 494.933594 72.882812 C 489.570312 71.503906 483.746094 69.882812 477.109375 67.910156 C 476.914062 67.820312 476.695312 67.800781 476.476562 67.800781 Z M 603.6875 68.699219 C 603.402344 68.699219 603.140625 68.742188 602.855469 68.851562 C 596.878906 71.132812 591.03125 73.082031 585.425781 74.660156 C 584.199219 75.011719 583.476562 76.28125 583.804688 77.53125 C 584.15625 78.757812 585.449219 79.480469 586.675781 79.152344 C 592.410156 77.550781 598.410156 75.558594 604.496094 73.214844 C 605.703125 72.753906 606.292969 71.417969 605.832031 70.210938 C 605.503906 69.269531 604.628906 68.699219 603.6875 68.699219 Z M 512.515625 76.871094 C 511.421875 76.871094 510.433594 77.640625 510.238281 78.757812 C 509.996094 80.027344 510.828125 81.234375 512.097656 81.476562 C 518.625 82.703125 524.710938 83.578125 530.6875 84.148438 C 531.957031 84.28125 533.097656 83.335938 533.226562 82.042969 C 533.359375 80.773438 532.417969 79.632812 531.125 79.503906 C 525.28125 78.953125 519.324219 78.078125 512.953125 76.871094 C 512.800781 76.894531 512.648438 76.871094 512.515625 76.871094 Z M 567.933594 78.558594 C 567.800781 78.558594 567.691406 78.558594 567.558594 78.582031 C 564.035156 79.152344 560.488281 79.570312 557.027344 79.832031 C 554.53125 80.027344 551.96875 80.160156 549.386719 80.226562 C 548.09375 80.246094 547.089844 81.320312 547.109375 82.613281 C 547.132812 83.90625 548.140625 84.894531 549.472656 84.894531 C 552.144531 84.828125 554.796875 84.695312 557.378906 84.476562 C 560.949219 84.191406 564.625 83.753906 568.28125 83.183594 C 569.550781 82.988281 570.40625 81.804688 570.210938 80.53125 C 570.054688 79.394531 569.070312 78.558594 567.933594 78.558594 Z M 567.933594 78.558594 " fill-opacity="1" fill-rule="nonzero"/></g></svg>