<svg xmlns="http://www.w3.org/2000/svg" xmlns:xlink="http://www.w3.org/1999/xlink" width="1080" zoomAndPan="magnify" viewBox="0 0 810 82.499998" height="110" preserveAspectRatio="xMidYMid meet" version="1.0"><defs><clipPath id="id1"><path d="M 2.441406 0 L 807.558594 0 L 807.558594 82.003906 L 2.441406 82.003906 Z M 2.441406 0 " clip-rule="nonzero"/></clipPath><clipPath id="id2"><path d="M 18 2 L 807.558594 2 L 807.558594 80.511719 L 18 80.511719 Z M 18 2 " clip-rule="nonzero"/></clipPath><clipPath id="id3"><path d="M 2.441406 0 L 44 0 L 44 42 L 2.441406 42 Z M 2.441406 0 " clip-rule="nonzero"/></clipPath></defs><g clip-path="url(#id1)"><path fill="#ffffff" d="M 2.441406 0 L 807.558594 0 L 807.558594 89.457031 L 2.441406 89.457031 Z M 2.441406 0 " fill-opacity="1" fill-rule="nonzero"/><path fill="#ffffff" d="M 2.441406 0 L 807.558594 0 L 807.558594 82.003906 L 2.441406 82.003906 Z M 2.441406 0 " fill-opacity="1" fill-rule="nonzero"/><path fill="#ffffff" d="M 2.441406 0 L 807.558594 0 L 807.558594 82.003906 L 2.441406 82.003906 Z M 2.441406 0 " fill-opacity="1" fill-rule="nonzero"/><path fill="#ffffff" d="M 2.441406 0 L 807.558594 0 L 807.558594 82.003906 L 2.441406 82.003906 Z M 2.441406 0 " fill-opacity="1" fill-rule="nonzero"/></g><g clip-path="url(#id2)"><path fill="#8200f6" d="M 78.175781 2.074219 C 82.847656 2.074219 87.539062 2.367188 92.128906 2.949219 L 92.667969 3.011719 C 93.871094 3.15625 94.722656 4.277344 94.578125 5.480469 C 94.433594 6.683594 93.3125 7.535156 92.109375 7.390625 L 91.589844 7.328125 C 86.085938 6.644531 80.480469 6.375 74.875 6.539062 C 73.652344 6.621094 72.632812 5.625 72.613281 4.402344 C 72.570312 3.175781 73.527344 2.179688 74.75 2.136719 C 75.871094 2.097656 77.035156 2.074219 78.175781 2.074219 Z M 57.3125 4.070312 C 58.351562 4.070312 59.261719 4.796875 59.472656 5.855469 C 59.699219 7.058594 58.929688 8.199219 57.726562 8.429688 C 51.976562 9.550781 46.410156 11.128906 41.179688 13.164062 C 40.039062 13.597656 38.773438 13.039062 38.335938 11.894531 C 37.898438 10.753906 38.460938 9.488281 39.601562 9.050781 C 45.0625 6.933594 50.894531 5.273438 56.894531 4.109375 C 57.019531 4.070312 57.167969 4.070312 57.3125 4.070312 Z M 109.671875 6.332031 C 109.859375 6.332031 110.023438 6.351562 110.210938 6.394531 C 115.714844 7.785156 121.441406 9.570312 127.234375 11.667969 C 128.378906 12.082031 128.980469 13.347656 128.5625 14.492188 C 128.148438 15.632812 126.882812 16.214844 125.742188 15.820312 C 120.074219 13.765625 114.488281 12.042969 109.132812 10.671875 C 107.949219 10.378906 107.242188 9.175781 107.53125 7.992188 C 107.78125 6.996094 108.675781 6.332031 109.671875 6.332031 Z M 24.695312 16.859375 C 25.421875 16.859375 26.128906 17.210938 26.542969 17.855469 C 27.207031 18.871094 26.917969 20.242188 25.898438 20.90625 C 24.445312 21.863281 23.015625 22.859375 21.664062 23.875 C 20.6875 24.601562 19.320312 24.414062 18.570312 23.4375 C 17.84375 22.464844 18.03125 21.09375 19.007812 20.347656 C 20.441406 19.265625 21.957031 18.207031 23.492188 17.210938 C 23.867188 16.984375 24.28125 16.859375 24.695312 16.859375 Z M 142.828125 18.144531 C 143.117188 18.144531 143.429688 18.207031 143.71875 18.332031 C 148.742188 20.574219 153.976562 23.066406 159.726562 25.972656 C 160.804688 26.511719 161.242188 27.839844 160.703125 28.921875 C 160.164062 30 158.835938 30.4375 157.734375 29.894531 C 152.046875 27.03125 146.875 24.5625 141.933594 22.359375 C 140.8125 21.863281 140.316406 20.554688 140.8125 19.453125 C 141.167969 18.644531 141.976562 18.144531 142.828125 18.144531 Z M 617.59375 21.175781 C 623.492188 21.195312 629.429688 21.300781 635.261719 21.46875 C 636.488281 21.507812 637.441406 22.503906 637.402344 23.730469 C 637.359375 24.933594 636.382812 25.867188 635.199219 25.867188 C 635.179688 25.867188 635.160156 25.867188 635.136719 25.867188 C 629.324219 25.703125 623.429688 25.621094 617.574219 25.578125 C 616.347656 25.578125 615.375 24.582031 615.375 23.355469 C 615.394531 22.152344 616.390625 21.175781 617.59375 21.175781 Z M 599.96875 21.300781 C 601.171875 21.300781 602.148438 22.257812 602.167969 23.460938 C 602.191406 24.683594 601.214844 25.683594 600.011719 25.703125 C 594.175781 25.804688 588.28125 25.972656 582.445312 26.222656 C 581.199219 26.304688 580.203125 25.328125 580.164062 24.105469 C 580.121094 22.878906 581.054688 21.863281 582.28125 21.820312 C 588.132812 21.570312 594.074219 21.40625 599.949219 21.300781 C 599.949219 21.300781 599.96875 21.300781 599.96875 21.300781 Z M 652.804688 22.171875 C 652.847656 22.171875 652.890625 22.171875 652.929688 22.171875 C 658.785156 22.464844 664.722656 22.835938 670.558594 23.273438 C 671.761719 23.355469 672.675781 24.414062 672.589844 25.640625 C 672.507812 26.84375 671.449219 27.757812 670.226562 27.675781 C 664.410156 27.238281 658.515625 26.863281 652.679688 26.574219 C 651.476562 26.511719 650.523438 25.472656 650.585938 24.269531 C 650.667969 23.085938 651.644531 22.171875 652.804688 22.171875 Z M 564.777344 22.734375 C 565.921875 22.734375 566.894531 23.625 566.980469 24.789062 C 567.0625 25.992188 566.128906 27.050781 564.921875 27.136719 C 559.132812 27.507812 553.234375 27.945312 547.402344 28.464844 C 546.175781 28.546875 545.117188 27.675781 545.011719 26.46875 C 544.910156 25.265625 545.800781 24.1875 547.027344 24.082031 C 552.882812 23.5625 558.820312 23.128906 564.652344 22.753906 C 564.675781 22.734375 564.714844 22.734375 564.777344 22.734375 Z M 687.953125 24.769531 C 688.015625 24.769531 688.101562 24.769531 688.183594 24.769531 C 694.433594 25.390625 700.183594 26.035156 705.769531 26.78125 C 706.972656 26.949219 707.824219 28.046875 707.65625 29.253906 C 707.492188 30.457031 706.390625 31.308594 705.1875 31.140625 C 699.644531 30.414062 693.953125 29.773438 687.746094 29.148438 C 686.542969 29.023438 685.648438 27.945312 685.773438 26.742188 C 685.878906 25.621094 686.832031 24.769531 687.953125 24.769531 Z M 529.671875 25.785156 C 530.769531 25.785156 531.726562 26.617188 531.851562 27.738281 C 531.976562 28.941406 531.105469 30.042969 529.898438 30.167969 C 524.128906 30.808594 518.253906 31.515625 512.460938 32.285156 C 511.257812 32.429688 510.15625 31.597656 509.988281 30.394531 C 509.824219 29.191406 510.675781 28.089844 511.878906 27.925781 C 517.710938 27.15625 523.609375 26.429688 529.421875 25.785156 C 529.503906 25.785156 529.589844 25.785156 529.671875 25.785156 Z M 722.875 29.417969 C 723 29.417969 723.125 29.417969 723.269531 29.460938 C 729.289062 30.519531 735.125 31.703125 740.648438 32.988281 C 741.832031 33.257812 742.578125 34.441406 742.285156 35.625 C 742.015625 36.808594 740.832031 37.535156 739.648438 37.265625 C 734.210938 36 728.4375 34.816406 722.5 33.777344 C 721.296875 33.570312 720.507812 32.429688 720.714844 31.226562 C 720.902344 30.1875 721.835938 29.417969 722.875 29.417969 Z M 494.75 30.4375 C 495.808594 30.4375 496.742188 31.203125 496.929688 32.304688 C 497.117188 33.507812 496.285156 34.628906 495.105469 34.816406 C 489.3125 35.730469 483.5 36.707031 477.769531 37.722656 C 476.5625 37.929688 475.421875 37.140625 475.214844 35.9375 C 475.007812 34.734375 475.796875 33.589844 477 33.382812 C 482.75 32.347656 488.605469 31.371094 494.417969 30.457031 C 494.523438 30.4375 494.625 30.4375 494.75 30.4375 Z M 174.34375 33.902344 C 174.695312 33.902344 175.046875 33.984375 175.378906 34.171875 C 178.910156 36.0625 182.417969 37.972656 185.925781 39.882812 L 190.890625 42.582031 C 191.949219 43.164062 192.363281 44.492188 191.78125 45.570312 C 191.199219 46.652344 189.871094 47.046875 188.792969 46.464844 L 183.832031 43.765625 C 180.34375 41.855469 176.832031 39.945312 173.304688 38.054688 C 172.226562 37.472656 171.832031 36.144531 172.410156 35.066406 C 172.785156 34.316406 173.554688 33.902344 174.34375 33.902344 Z M 460.058594 36.683594 C 461.074219 36.683594 462.011719 37.410156 462.21875 38.449219 C 462.46875 39.632812 461.699219 40.796875 460.496094 41.046875 C 454.804688 42.207031 449.015625 43.453125 443.324219 44.742188 C 442.140625 45.011719 440.957031 44.261719 440.6875 43.078125 C 440.417969 41.894531 441.164062 40.710938 442.347656 40.441406 C 448.078125 39.136719 453.894531 37.890625 459.621094 36.726562 C 459.769531 36.683594 459.914062 36.683594 460.058594 36.683594 Z M 757.152344 37.496094 C 757.359375 37.496094 757.585938 37.515625 757.796875 37.597656 C 763.609375 39.363281 769.253906 41.335938 774.589844 43.453125 C 775.710938 43.910156 776.273438 45.175781 775.835938 46.316406 C 775.378906 47.460938 774.113281 48 772.972656 47.5625 C 767.738281 45.488281 762.195312 43.558594 756.507812 41.832031 C 755.34375 41.480469 754.679688 40.257812 755.054688 39.09375 C 755.34375 38.097656 756.21875 37.496094 757.152344 37.496094 Z M 425.699219 44.492188 C 426.675781 44.492188 427.589844 45.15625 427.835938 46.152344 C 428.128906 47.335938 427.421875 48.519531 426.238281 48.832031 C 420.589844 50.261719 414.863281 51.757812 409.257812 53.316406 C 408.074219 53.648438 406.867188 52.960938 406.535156 51.777344 C 406.203125 50.617188 406.890625 49.390625 408.074219 49.058594 C 413.71875 47.5 419.46875 45.964844 425.160156 44.53125 C 425.347656 44.53125 425.53125 44.492188 425.699219 44.492188 Z M 789.851562 50.511719 C 790.183594 50.511719 790.535156 50.59375 790.847656 50.761719 C 796.222656 53.5 801.414062 56.492188 806.316406 59.667969 C 807.332031 60.332031 807.621094 61.703125 806.957031 62.71875 C 806.292969 63.738281 804.921875 64.027344 803.90625 63.363281 C 799.152344 60.269531 794.085938 57.363281 788.855469 54.683594 C 787.773438 54.125 787.339844 52.816406 787.898438 51.714844 C 788.273438 50.949219 789.042969 50.511719 789.851562 50.511719 Z M 205.402344 50.554688 C 205.734375 50.554688 206.085938 50.636719 206.398438 50.800781 C 212.085938 53.730469 217.234375 56.242188 222.136719 58.503906 C 223.234375 59.023438 223.734375 60.332031 223.214844 61.433594 C 222.714844 62.53125 221.410156 63.03125 220.289062 62.511719 C 215.324219 60.226562 210.113281 57.675781 204.363281 54.726562 C 203.285156 54.167969 202.847656 52.835938 203.410156 51.757812 C 203.824219 50.988281 204.589844 50.554688 205.402344 50.554688 Z M 391.753906 53.894531 C 392.710938 53.894531 393.582031 54.519531 393.871094 55.472656 C 394.226562 56.636719 393.558594 57.863281 392.398438 58.214844 L 391.503906 58.484375 C 386.667969 59.957031 381.808594 61.472656 376.929688 62.988281 L 375.582031 63.40625 C 374.417969 63.777344 373.195312 63.113281 372.820312 61.953125 C 372.445312 60.789062 373.109375 59.5625 374.273438 59.191406 L 375.621094 58.773438 C 380.5 57.238281 385.378906 55.722656 390.238281 54.25 L 391.132812 53.980469 C 391.316406 53.9375 391.546875 53.894531 391.753906 53.894531 Z M 358.078125 64.296875 C 359.035156 64.296875 359.90625 64.921875 360.195312 65.875 C 360.550781 67.039062 359.886719 68.261719 358.722656 68.617188 C 352.390625 70.503906 346.828125 72.0625 341.679688 73.371094 C 340.496094 73.679688 339.289062 72.953125 339 71.792969 C 338.6875 70.609375 339.414062 69.40625 340.578125 69.113281 C 345.664062 67.804688 351.1875 66.269531 357.476562 64.402344 C 357.664062 64.316406 357.871094 64.296875 358.078125 64.296875 Z M 237.457031 65.148438 C 237.726562 65.148438 237.976562 65.191406 238.246094 65.292969 C 243.914062 67.453125 249.457031 69.300781 254.773438 70.796875 C 255.933594 71.128906 256.621094 72.332031 256.308594 73.515625 C 255.976562 74.679688 254.75 75.363281 253.589844 75.050781 C 248.148438 73.535156 242.460938 71.648438 236.6875 69.425781 C 235.546875 68.988281 234.984375 67.722656 235.421875 66.582031 C 235.734375 65.6875 236.5625 65.148438 237.457031 65.148438 Z M 323.90625 72.894531 C 324.945312 72.894531 325.878906 73.621094 326.066406 74.679688 C 326.292969 75.882812 325.503906 77.023438 324.300781 77.253906 C 318.113281 78.414062 312.34375 79.246094 306.675781 79.785156 C 305.46875 79.910156 304.390625 79.015625 304.265625 77.792969 C 304.140625 76.589844 305.035156 75.507812 306.257812 75.382812 C 311.804688 74.863281 317.449219 74.035156 323.492188 72.894531 C 323.636719 72.914062 323.78125 72.894531 323.90625 72.894531 Z M 271.359375 74.492188 C 271.484375 74.492188 271.589844 74.492188 271.710938 74.511719 C 275.054688 75.050781 278.417969 75.445312 281.699219 75.695312 C 284.066406 75.882812 286.496094 76.007812 288.945312 76.070312 C 290.167969 76.089844 291.125 77.105469 291.105469 78.332031 C 291.082031 79.558594 290.128906 80.492188 288.863281 80.492188 C 286.328125 80.429688 283.816406 80.304688 281.367188 80.097656 C 277.984375 79.828125 274.496094 79.410156 271.027344 78.871094 C 269.824219 78.683594 269.015625 77.5625 269.199219 76.359375 C 269.347656 75.28125 270.28125 74.492188 271.359375 74.492188 Z M 271.359375 74.492188 " fill-opacity="1" fill-rule="nonzero"/></g><g clip-path="url(#id3)"><path fill="#8200f6" d="M 2.5625 41.894531 C 7.714844 29.585938 12.53125 12.851562 12.964844 0.0820312 L 23.097656 19.929688 L 43.566406 28.691406 C 30.863281 30 14.480469 35.917969 2.5625 41.894531 Z M 2.5625 41.894531 " fill-opacity="1" fill-rule="nonzero"/></g></svg>